<?xml version="1.0" standalone="no"?>
<!DOCTYPE svg PUBLIC "-//W3C//DTD SVG 20010904//EN"
 "http://www.w3.org/TR/2001/REC-SVG-20010904/DTD/svg10.dtd">
<svg version="1.0" xmlns="http://www.w3.org/2000/svg"
 width="508.867341pt" height="486.000000pt" viewBox="0 0 508.867341 486.000000"
 preserveAspectRatio="xMidYMid meet">
<metadata>
Created by potrace 1.12, written by Peter Selinger 2001-2015
</metadata>
<g transform="translate(-17.668916,502.000000) scale(0.100000,-0.100000)"
fill="#000000" stroke="none">
<path d="M1425 4627 c-299 -250 -470 -400 -470 -411 0 -14 119 -71 549 -263
344 -153 562 -245 582 -245 51 0 1587 460 1602 480 9 11 12 33 8 62 -3 25 -20
203 -37 395 -18 193 -37 356 -42 363 -7 9 -192 12 -866 12 l-856 0 -470 -393z
m2218 -26 c22 -236 34 -398 28 -404 -13 -13 -1540 -467 -1578 -469 -22 -1
-195 72 -578 242 l-546 244 28 27 c15 15 225 192 467 393 l438 366 852 -2 851
-3 38 -394z"/>
<path d="M3710 4931 c0 -11 16 -185 35 -388 33 -338 38 -371 60 -408 14 -22
244 -350 512 -730 l488 -690 218 -69 c162 -52 220 -67 229 -58 8 8 -63 192
-282 731 l-293 721 -465 452 c-256 249 -474 454 -484 456 -12 2 -18 -3 -18
-17z m753 -712 l198 -194 289 -710 c159 -390 287 -711 285 -713 -2 -2 -97 27
-212 65 l-208 68 -462 655 c-255 360 -483 684 -508 720 l-44 65 -36 372 c-19
205 -35 375 -35 379 0 6 224 -211 733 -707z"/>
<path d="M872 4128 c-5 -7 -166 -346 -357 -753 -326 -694 -347 -741 -336 -770
39 -107 621 -1351 633 -1353 24 -5 1187 628 1193 649 4 11 12 398 20 862 10
636 10 846 2 860 -10 15 -1115 517 -1138 517 -3 0 -11 -6 -17 -12z m603 -268
c286 -127 525 -237 531 -243 14 -14 -9 -1704 -23 -1717 -17 -17 -1164 -632
-1169 -627 -17 17 -617 1337 -617 1357 0 19 575 1258 674 1453 19 37 20 37 52
23 17 -7 266 -118 552 -246z"/>
<path d="M2916 3866 c-597 -178 -782 -237 -792 -252 -17 -27 -41 -1698 -24
-1719 17 -21 1589 -647 1609 -640 22 7 1011 1406 1011 1430 0 14 -867 1255
-962 1378 -17 20 -37 37 -46 36 -10 0 -368 -105 -796 -233z m843 162 c162
-218 935 -1327 935 -1343 0 -16 -936 -1357 -980 -1404 -12 -13 -122 29 -796
299 -431 172 -789 319 -797 326 -11 10 -12 122 -2 716 6 386 11 762 11 834 0
89 4 135 13 147 7 10 298 101 782 246 424 126 775 230 782 230 7 1 30 -23 52
-51z"/>
<path d="M4778 2613 c-36 -41 -1007 -1423 -1012 -1441 -12 -37 -135 -926 -129
-935 2 -4 11 -7 19 -5 8 2 227 183 489 402 l475 400 325 718 c180 395 324 722
320 728 -6 10 -433 150 -457 150 -8 0 -22 -8 -30 -17z m272 -78 c127 -41 194
-68 192 -76 -2 -7 -146 -327 -321 -713 l-319 -700 -473 -398 c-260 -219 -473
-397 -474 -395 -1 1 26 202 61 447 35 245 63 450 64 457 0 10 973 1396 1008
1436 20 22 17 23 262 -58z"/>
<path d="M1448 1498 c-435 -235 -578 -317 -578 -331 0 -16 807 -892 898 -974
l35 -33 864 0 863 0 10 22 c5 13 39 236 76 497 57 409 64 475 52 487 -23 23
-1578 644 -1612 644 -21 0 -210 -97 -608 -312z m1409 -19 c428 -171 784 -316
791 -323 10 -10 0 -104 -55 -492 l-68 -479 -860 -3 -859 -2 -50 53 c-183 190
-861 921 -863 931 -4 15 1125 624 1159 625 16 1 378 -139 805 -310z"/>
</g>
</svg>
