<?xml version="1.0" standalone="no"?>
<!DOCTYPE svg PUBLIC "-//W3C//DTD SVG 20010904//EN"
 "http://www.w3.org/TR/2001/REC-SVG-20010904/DTD/svg10.dtd">
<svg version="1.0" xmlns="http://www.w3.org/2000/svg"
 width="514.732266pt" height="576.998526pt" viewBox="0 0 514.732266 576.998526"
 preserveAspectRatio="xMidYMid meet">
<metadata>
Created by potrace 1.12, written by Peter Selinger 2001-2015
</metadata>
<g transform="translate(-99.133867,597.000000) scale(0.100000,-0.100000)"
fill="#000000" stroke="none">
<path d="M2226 5321 c-637 -368 -1128 -658 -1138 -672 -15 -19 -17 -31 -9 -50
6 -16 142 -126 378 -305 318 -241 373 -279 403 -279 34 0 48 17 792 954 417
525 758 959 758 966 0 18 -22 35 -44 34 -12 0 -525 -292 -1140 -648z m901 327
c-106 -134 -433 -546 -726 -915 -294 -370 -538 -673 -543 -673 -5 0 -173 124
-374 277 -298 225 -363 279 -352 289 11 11 2177 1264 2185 1264 2 0 -84 -109
-190 -242z"/>
<path d="M3528 5958 c-13 -11 -1363 -1707 -1485 -1866 -38 -50 -42 -83 -13
-112 20 -20 33 -20 1535 -20 1502 0 1515 0 1535 20 29 29 25 62 -13 112 -122
159 -1472 1855 -1485 1866 -9 6 -25 12 -37 12 -12 0 -28 -6 -37 -12z m792
-978 c410 -517 746 -947 748 -955 3 -13 -163 -15 -1503 -15 -1340 0 -1506 2
-1503 15 4 21 1491 1894 1503 1894 6 0 345 -423 755 -939z"/>
<path d="M3732 5958 c-7 -7 -12 -17 -12 -23 0 -6 341 -441 758 -966 742 -934
759 -954 793 -954 29 0 85 39 402 279 236 179 372 289 378 305 8 19 6 31 -9
50 -20 27 -2254 1321 -2281 1321 -9 0 -22 -5 -29 -12z m1185 -703 c588 -339
1074 -622 1081 -629 11 -10 -55 -64 -354 -291 -262 -198 -371 -275 -380 -269
-7 5 -329 407 -715 894 -386 487 -709 894 -718 904 -15 18 -15 19 1 13 10 -3
498 -283 1085 -622z"/>
<path d="M1010 4480 c-20 -20 -20 -31 -18 -1266 3 -1170 4 -1247 20 -1258 14
-8 21 -7 34 6 18 18 774 1918 774 1946 0 26 -6 31 -395 326 -213 162 -359 266
-372 266 -13 0 -32 -9 -43 -20z m392 -291 c183 -138 341 -259 351 -269 18 -16
4 -53 -338 -916 -196 -494 -361 -908 -365 -919 -5 -11 -9 515 -9 1174 -1 1023
1 1192 13 1188 8 -3 164 -119 348 -258z"/>
<path d="M5705 4234 c-389 -296 -395 -300 -395 -326 0 -28 756 -1928 774
-1946 13 -13 20 -14 34 -6 16 11 17 88 20 1258 2 1235 2 1246 -18 1266 -11 11
-30 20 -42 20 -14 0 -159 -104 -373 -266z m384 -976 c0 -659 -4 -1184 -9
-1173 -4 11 -169 425 -365 919 -293 739 -354 901 -343 912 27 26 702 534 710
534 4 0 8 -537 7 -1192z"/>
<path d="M2090 3870 c-11 -11 -20 -29 -20 -39 0 -17 1385 -2392 1442 -2473 27
-39 79 -39 106 -1 57 82 1442 2457 1442 2474 0 10 -9 28 -20 39 -20 20 -33 20
-1475 20 -1442 0 -1455 0 -1475 -20z m2916 -46 c-17 -45 -1432 -2444 -1441
-2444 -9 0 -1424 2399 -1441 2444 -6 15 103 16 1441 16 1338 0 1447 -1 1441
-16z"/>
<path d="M1883 3838 c-11 -13 -206 -492 -433 -1065 -428 -1081 -427 -1078
-381 -1102 18 -10 2272 -411 2310 -411 32 0 64 37 59 68 -5 31 -1452 2501
-1476 2520 -24 19 -56 14 -79 -10z m786 -1281 c397 -675 721 -1232 721 -1238
0 -5 -6 -9 -13 -9 -22 0 -2281 400 -2285 405 -5 4 746 1910 805 2044 20 47 25
53 38 40 8 -8 338 -567 734 -1242z"/>
<path d="M5168 3848 c-25 -20 -1478 -2504 -1478 -2527 0 -27 34 -61 61 -61 38
0 2292 401 2310 411 46 24 47 21 -381 1102 -227 573 -422 1052 -433 1065 -23
24 -55 29 -79 10z m467 -1097 c224 -567 406 -1033 404 -1036 -5 -5 -2263 -405
-2286 -405 -7 0 -13 4 -13 9 0 9 1387 2378 1437 2455 22 35 27 38 37 23 7 -9
196 -480 421 -1046z"/>
<path d="M1215 1556 c-49 -36 -60 -29 1115 -707 619 -357 1130 -649 1136 -649
6 0 23 9 38 21 l26 20 0 440 c0 266 -4 448 -10 458 -5 10 -17 21 -25 25 -9 3
-514 94 -1123 201 -609 107 -1115 197 -1124 199 -9 2 -24 -2 -33 -8z m1159
-241 c578 -102 1063 -188 1079 -191 l27 -6 0 -428 c0 -236 -3 -431 -7 -433 -5
-3 -483 269 -1063 604 -580 336 -1066 616 -1080 624 -14 8 -21 14 -16 15 4 0
481 -83 1060 -185z"/>
<path d="M4835 1379 c-583 -103 -1091 -193 -1129 -199 -115 -20 -106 20 -106
-494 l0 -445 26 -20 c15 -12 32 -21 38 -21 6 0 517 292 1136 649 983 568 1125
653 1128 675 2 16 -3 28 -15 34 -12 6 -344 -49 -1078 -179z m965 106 c-14 -8
-500 -288 -1080 -624 -580 -335 -1058 -607 -1062 -604 -5 2 -8 197 -8 434 0
236 3 429 8 429 4 1 484 86 1067 189 583 104 1069 189 1080 190 17 0 17 -2 -5
-14z"/>
</g>
</svg>
