<?xml version="1.0" standalone="no"?>
<!DOCTYPE svg PUBLIC "-//W3C//DTD SVG 20010904//EN"
 "http://www.w3.org/TR/2001/REC-SVG-20010904/DTD/svg10.dtd">
<svg version="1.0" xmlns="http://www.w3.org/2000/svg"
 width="405.008235pt" height="465.019354pt" viewBox="0 0 405.008235 465.019354"
 preserveAspectRatio="xMidYMid meet">
<metadata>
Created by potrace 1.12, written by Peter Selinger 2001-2015
</metadata>
<g transform="translate(-62.000000,468.582210) scale(0.100000,-0.100000)"
fill="#000000" stroke="none">
<path d="M1643 4116 c-546 -315 -999 -579 -1008 -586 -13 -11 -15 -145 -15
-1175 l0 -1162 1003 -579 c626 -362 1011 -579 1027 -578 14 0 462 253 1020
576 l995 576 3 1170 2 1169 -1000 578 c-550 317 -1008 579 -1017 581 -11 2
-424 -231 -1010 -570z m1983 -36 c527 -304 963 -556 967 -560 7 -6 -1908
-1120 -1940 -1128 -7 -2 -452 250 -988 559 -899 519 -973 564 -953 576 13 7
451 260 973 562 523 303 957 549 966 547 9 -2 448 -252 975 -556z m-1979
-1169 l968 -559 3 -1131 2 -1131 -48 27 c-27 16 -466 269 -975 563 l-927 535
0 1127 c0 621 2 1128 4 1128 2 0 440 -252 973 -559z m2981 -568 l-3 -1127
-940 -544 c-517 -298 -957 -552 -977 -563 l-38 -19 0 1128 0 1129 973 561
c534 309 975 562 980 562 4 0 6 -507 5 -1127z"/>
</g>
</svg>
